<svg width="41" height="40" viewBox="0 0 41 40" fill="none" xmlns="http://www.w3.org/2000/svg">
<path d="M24.4576 40H16.332C15.7508 40 15.2793 39.5289 15.2793 38.9474V35.1094C14.4803 34.85 13.6956 34.5262 12.9328 34.1414L10.2183 36.8559C10.021 37.0532 9.75302 37.1642 9.4741 37.1642C9.19449 37.1642 8.92654 37.0532 8.72917 36.8555L2.98425 31.1027C2.78688 30.905 2.67654 30.637 2.67654 30.3578C2.67654 30.0785 2.78825 29.8109 2.98561 29.6135L5.69874 26.9069C5.31429 26.1445 4.99082 25.3602 4.73109 24.5614H1.55263C0.971495 24.5614 0.5 24.0903 0.5 23.5088C0.5 22.9273 0.971495 22.4562 1.55263 22.4562H5.51645C5.99274 22.4562 6.4094 22.7755 6.53276 23.235C6.84252 24.386 7.30647 25.512 7.91159 26.5821C8.1446 26.9943 8.07401 27.511 7.7389 27.8454L5.21834 30.3602L9.47478 34.6224L11.996 32.1009C12.3304 31.7661 12.8451 31.6952 13.2584 31.9288C14.3288 32.534 15.4548 32.9976 16.6054 33.3077C17.0652 33.4314 17.3846 33.848 17.3846 34.324V37.8948H23.405V34.324C23.405 33.848 23.7244 33.4314 24.1842 33.3077C25.3348 32.9976 26.4608 32.5336 27.5306 31.9288C27.9445 31.6951 28.4605 31.7668 28.7936 32.1015L31.308 34.6221L35.5706 30.3598L33.05 27.8454C32.7149 27.511 32.6443 26.9943 32.8773 26.5821C33.4824 25.512 33.9464 24.386 34.2562 23.235C34.3795 22.7755 34.7962 22.4562 35.2725 22.4562H39.4474C40.0285 22.4562 40.5 22.9273 40.5 23.5088C40.5 24.0903 40.0285 24.5614 39.4474 24.5614H36.0578C35.7981 25.3602 35.4746 26.1445 35.0902 26.9069L37.804 29.6135C38.0014 29.8109 38.1131 30.0789 38.1131 30.3581C38.1131 30.6377 38.002 30.9057 37.8047 31.103L32.0515 36.8559C31.8542 37.0532 31.5862 37.1642 31.3073 37.1642C31.0277 37.1639 30.7597 37.0529 30.5623 36.8552L27.8554 34.1417C27.0933 34.5262 26.3086 34.85 25.5103 35.109V38.9474C25.5103 39.5289 25.0388 40 24.4576 40Z" fill="#DC1D28"/>
<path d="M20.4998 28.772C17.1877 28.772 14.1936 26.9388 12.6853 23.9878C12.4207 23.4701 12.6263 22.8362 13.1437 22.5717C13.6618 22.3075 14.2957 22.5124 14.5603 23.0298C15.7068 25.2731 17.9827 26.6667 20.4998 26.6667C23.017 26.6667 25.2929 25.2731 26.4394 23.0298C26.7039 22.5124 27.3385 22.3075 27.8559 22.5717C28.3733 22.8362 28.5789 23.4701 28.3144 23.9878C26.806 26.9388 23.8119 28.772 20.4998 28.772Z" fill="#DC1D28"/>
<path d="M7.51725 13.6842C4.84387 13.6842 2.6687 11.509 2.6687 8.83561C2.6687 6.16223 4.84387 3.98706 7.51725 3.98706C10.1906 3.98706 12.3658 6.16223 12.3658 8.83561C12.3658 11.509 10.1906 13.6842 7.51725 13.6842ZM7.51725 6.09233C6.00478 6.09233 4.77396 7.3228 4.77396 8.83561C4.77396 10.3484 6.00478 11.5789 7.51725 11.5789C9.02972 11.5789 10.2605 10.3484 10.2605 8.83561C10.2605 7.3228 9.02972 6.09233 7.51725 6.09233Z" fill="#DC1D28"/>
<path d="M8.57018 19.649H1.55263C0.971495 19.649 0.5 19.1779 0.5 18.5964C0.5 14.7268 3.6483 11.5789 7.51754 11.5789C10.4047 11.5789 13.0363 13.3877 14.0656 16.0803C14.2733 16.6234 14.0012 17.232 13.4585 17.4393C12.9164 17.6466 12.3065 17.3755 12.0988 16.8321C11.3792 14.9492 9.53783 13.6841 7.51754 13.6841C5.17036 13.6841 3.20217 15.3391 2.71902 17.5438H8.57018C9.15131 17.5438 9.62281 18.0149 9.62281 18.5964C9.62281 19.1779 9.15131 19.649 8.57018 19.649Z" fill="#DC1D28"/>
<path d="M33.4821 13.6842C30.8087 13.6842 28.6335 11.509 28.6335 8.83561C28.6335 6.16223 30.8087 3.98706 33.4821 3.98706C36.1555 3.98706 38.3306 6.16223 38.3306 8.83561C38.3306 11.509 36.1555 13.6842 33.4821 13.6842ZM33.4821 6.09233C31.9696 6.09233 30.7388 7.3228 30.7388 8.83561C30.7388 10.3484 31.9696 11.5789 33.4821 11.5789C34.9946 11.5789 36.2254 10.3484 36.2254 8.83561C36.2254 7.3228 34.9946 6.09233 33.4821 6.09233Z" fill="#DC1D28"/>
<path d="M39.4472 19.649H32.4297C31.8485 19.649 31.377 19.1779 31.377 18.5964C31.377 18.0149 31.8485 17.5438 32.4297 17.5438H38.2808C37.7977 15.3391 35.8295 13.6841 33.4823 13.6841C31.462 13.6841 29.6206 14.9492 28.901 16.8321C28.6934 17.3755 28.0841 17.6469 27.5414 17.4393C26.9986 17.232 26.7266 16.6234 26.9342 16.0803C27.9635 13.3877 30.5951 11.5789 33.4823 11.5789C37.3515 11.5789 40.4999 14.7268 40.4999 18.5964C40.4999 19.1779 40.0284 19.649 39.4472 19.649Z" fill="#DC1D28"/>
<path d="M20.4996 11.9298C17.2108 11.9298 14.5347 9.25405 14.5347 5.96492C14.5347 2.67578 17.2108 0 20.4996 0C23.7884 0 26.4645 2.67578 26.4645 5.96492C26.4645 9.25405 23.7884 11.9298 20.4996 11.9298ZM20.4996 2.10526C18.3717 2.10526 16.6399 3.8367 16.6399 5.96492C16.6399 8.09314 18.3717 9.82457 20.4996 9.82457C22.6275 9.82457 24.3592 8.09314 24.3592 5.96492C24.3592 3.8367 22.6275 2.10526 20.4996 2.10526Z" fill="#DC1D28"/>
<path d="M28.2188 19.649H12.7802C12.199 19.649 11.7275 19.1779 11.7275 18.5964C11.7275 13.7595 15.6626 9.82446 20.4995 9.82446C25.3364 9.82446 29.2714 13.7595 29.2714 18.5964C29.2714 19.1779 28.7999 19.649 28.2188 19.649ZM13.9157 17.5438H27.0832C26.5768 14.366 23.8177 11.9297 20.4995 11.9297C17.1812 11.9297 14.4222 14.366 13.9157 17.5438Z" fill="#DC1D28"/>
</svg>
