<svg width="41" height="40" viewBox="0 0 41 40" fill="none" xmlns="http://www.w3.org/2000/svg">
<path fill-rule="evenodd" clip-rule="evenodd" d="M20.8603 16.5577C22.0641 16.5577 23.0425 15.6298 23.0425 14.488C23.0425 13.9533 22.5842 13.6308 22.0878 13.2979C21.2076 12.7098 20.0747 12.2303 19.0691 11.6922C17.1633 10.6728 15.7685 9.38099 15.7685 7.58896C15.7685 5.40368 17.3033 3.55474 19.4055 2.95969V1.37981C19.4055 0.617464 20.0565 0 20.8603 0C21.6641 0 22.3151 0.617464 22.3151 1.37981V2.95969C24.4173 3.55474 25.9521 5.40368 25.9521 7.58896C25.9521 8.3513 25.301 8.96877 24.4973 8.96877C23.6935 8.96877 23.0425 8.3513 23.0425 7.58896C23.0425 6.44717 22.0641 5.51924 20.8603 5.51924C19.6564 5.51924 18.6781 6.44717 18.6781 7.58896C18.6781 8.12364 19.1364 8.44617 19.6328 8.77904C20.513 9.36719 21.6459 9.84667 22.6515 10.3848C24.5573 11.4041 25.9521 12.696 25.9521 14.488C25.9521 16.6733 24.4173 18.5222 22.3151 19.1173V20.6972C22.3151 21.4595 21.6641 22.077 20.8603 22.077C20.0565 22.077 19.4055 21.4595 19.4055 20.6972V19.1173C17.3033 18.5222 15.7685 16.6733 15.7685 14.488C15.7685 13.7257 16.4195 13.1082 17.2233 13.1082C18.0271 13.1082 18.6781 13.7257 18.6781 14.488C18.6781 15.6298 19.6564 16.5577 20.8603 16.5577ZM20.8894 26.4665C21.5259 26.4665 22.1369 26.7062 22.586 27.134C23.037 27.56 23.2898 28.1395 23.2898 28.7432V28.7466C23.2898 29.3503 23.037 29.9281 22.586 30.3558C22.1369 30.7819 21.5259 31.0233 20.8894 31.0233H13.0644C12.6625 31.0233 12.337 31.3321 12.337 31.7132C12.337 32.0927 12.6625 32.4031 13.0644 32.4031H20.8894C21.9114 32.4031 22.8915 32.0168 23.6153 31.3321C23.7517 31.201 24.2463 30.8957 24.3645 30.8336L37.1867 24.2002C37.8814 23.8414 38.7233 23.8569 39.4035 24.2398C40.0836 24.6227 40.5 25.3161 40.5 26.0663V27.0736C40.5 27.8515 40.0527 28.5673 39.3325 28.9398L24.3191 36.7064C23.999 36.872 23.6408 36.9582 23.2752 36.9582H13.9318C13.5136 36.9582 12.2934 37.0324 11.4241 37.179C10.9568 37.2566 10.5749 37.3704 10.3821 37.4791L6.5233 39.6747C5.91228 40.0231 5.17034 40.0956 4.49568 39.8731C3.82283 39.6506 3.29002 39.1556 3.03906 38.5226L0.653204 32.4876C0.222221 31.3959 0.727762 30.1713 1.82795 29.6504L8.03446 26.7062C8.36906 26.5493 8.7364 26.4665 9.10919 26.4665H20.8894Z" fill="#DC1D28"/>
</svg>
