<svg width="41" height="40" viewBox="0 0 41 40" fill="none" xmlns="http://www.w3.org/2000/svg">
<path d="M6.05463 21.0609H9.59129C10.0477 21.0609 10.4613 21.2462 10.7614 21.5463C11.0615 21.8465 11.2469 22.2614 11.2469 22.7165V35.7676C11.2469 36.2227 11.0615 36.6376 10.7614 36.9378C10.4613 37.2365 10.0477 37.4232 9.59129 37.4232H6.05463C5.5982 37.4232 5.18326 37.2379 4.88451 36.9378C4.58437 36.6376 4.39765 36.2227 4.39765 35.7676V22.7165C4.39765 22.2614 4.58437 21.8465 4.88451 21.5463C5.18326 21.2462 5.5982 21.0609 6.05463 21.0609ZM0.5 0.525588C0.5 0.235131 0.735131 0 1.02559 0C1.31604 0 1.55118 0.235131 1.55118 0.525588V38.9474H39.9744C40.2649 38.9474 40.5 39.184 40.5 39.4744C40.5 39.7635 40.2649 40 39.9744 40H1.02559C0.735131 40 0.5 39.7635 0.5 39.4744L0.5 0.525588ZM5.61895 15.8575C5.39627 16.0429 5.0657 16.0138 4.88036 15.7911C4.69364 15.5698 4.72268 15.2379 4.94537 15.0526L15.4391 6.24896C15.9965 5.78423 16.6784 5.57538 17.3479 5.61273C18.0173 5.65145 18.6729 5.93638 19.1722 6.46196L23.0491 10.4993L29.2137 4.91978L28.3617 4.06777C28.3506 4.05671 28.3382 4.04426 28.3285 4.03181C28.1833 3.87552 28.0851 3.69156 28.0367 3.49378C27.9841 3.28216 27.9896 3.05671 28.0574 2.83679C28.1266 2.61411 28.2483 2.42324 28.4115 2.27801C28.5747 2.13278 28.7766 2.0332 29.0048 1.99032L34.7337 0.915629C34.9357 0.876902 35.1362 0.887967 35.323 0.946058C35.5111 1.00415 35.6812 1.10788 35.8278 1.25311L35.8306 1.25588C35.9758 1.40111 36.0781 1.57261 36.1362 1.75934C36.1943 1.94744 36.2054 2.14661 36.1681 2.34855L35.092 8.07746C35.0491 8.30567 34.9495 8.50761 34.8043 8.67082C34.6591 8.83403 34.4696 8.95712 34.2469 9.0249C34.0256 9.09405 33.8015 9.09959 33.5899 9.04703C33.3769 8.99447 33.1805 8.88382 33.0173 8.72061H33.0145L32.0823 7.78838L24.8098 14.3693C24.5387 14.6141 24.2317 14.7953 23.9094 14.9129C23.5747 15.036 23.222 15.0899 22.8721 15.0761C22.5207 15.0636 22.175 14.9834 21.8527 14.8368C21.5401 14.6957 21.2497 14.491 20.9979 14.2282L17.0878 10.1563L7.54426 18.1632C7.32158 18.3499 6.99101 18.3195 6.80567 18.0982C6.61895 17.8755 6.64799 17.5436 6.87068 17.3582L16.7905 9.03734C16.9993 8.86169 17.3119 8.87552 17.5041 9.07607L21.7586 13.5048C21.9136 13.668 22.092 13.7925 22.2842 13.8797C22.4848 13.971 22.6978 14.0207 22.9094 14.029C23.1252 14.0373 23.3437 14.0041 23.5526 13.9281C23.7531 13.8548 23.9412 13.7427 24.1086 13.592L31.7158 6.70954L31.731 6.69295C31.9357 6.48824 32.269 6.48824 32.4737 6.69295L33.7586 7.97787L33.7573 7.97925C33.7835 8.00415 33.8112 8.02075 33.8402 8.02766C33.8693 8.03596 33.9039 8.03458 33.9385 8.02351C33.9716 8.01245 33.9993 7.99585 34.0201 7.97234C34.0408 7.95021 34.0546 7.91978 34.0616 7.8852L35.1362 2.15629C35.1432 2.1231 35.1418 2.09267 35.1349 2.06777C35.1266 2.04288 35.1113 2.01936 35.0892 1.99585L35.0864 1.99447C35.0643 1.97095 35.0394 1.95574 35.0145 1.94882C34.9896 1.94053 34.9606 1.93914 34.9274 1.94606L29.1985 3.02213C29.1625 3.02766 29.1335 3.04288 29.11 3.06362C29.0878 3.08299 29.0698 3.11065 29.0602 3.14385C29.0491 3.17981 29.0477 3.213 29.0546 3.24343C29.0602 3.26556 29.0726 3.28907 29.0906 3.30982L30.1598 4.37898V4.38036L30.3451 4.5657L30.3437 4.56708L30.3631 4.58645C30.5567 4.80083 30.5401 5.1314 30.3257 5.32642L23.3963 11.5961L23.3866 11.6058C23.1777 11.8064 22.8458 11.8008 22.6452 11.592L18.4115 7.18396C18.103 6.8603 17.7006 6.68326 17.2911 6.65975C16.879 6.63624 16.4571 6.76625 16.1127 7.05394L5.61895 15.8575ZM9.59129 22.112H6.05463C5.88866 22.112 5.73651 22.1798 5.62725 22.2905C5.51798 22.3997 5.44882 22.5505 5.44882 22.7165V35.7676C5.44882 35.9336 5.51798 36.0844 5.62725 36.1936C5.73651 36.3043 5.88866 36.3721 6.05463 36.3721H9.59129C9.75726 36.3721 9.90802 36.3043 10.0173 36.1936C10.1279 36.0844 10.1957 35.9336 10.1957 35.7676V22.7165C10.1957 22.5505 10.1279 22.3997 10.0173 22.2905C9.90802 22.1798 9.75726 22.112 9.59129 22.112ZM32.4557 11.7856H35.9938C36.4502 11.7856 36.8638 11.971 37.1639 12.2711C37.464 12.5712 37.6494 12.9848 37.6494 13.4412V35.7676C37.6494 36.2227 37.464 36.6376 37.1639 36.9378C36.8638 37.2379 36.4502 37.4232 35.9938 37.4232H32.4557C32.0007 37.4232 31.5858 37.2379 31.287 36.9378C30.9869 36.6376 30.8001 36.2227 30.8001 35.7676V13.4412C30.8001 12.9848 30.9869 12.5712 31.287 12.2711C31.5858 11.971 32.0007 11.7856 32.4557 11.7856ZM35.9938 12.8368H32.4557C32.2911 12.8368 32.139 12.9046 32.0297 13.0138C31.9205 13.1245 31.8513 13.2752 31.8513 13.4412V35.7676C31.8513 35.9336 31.9205 36.0844 32.0297 36.1936C32.139 36.3043 32.2911 36.3721 32.4557 36.3721H35.9938C36.1598 36.3721 36.3105 36.3043 36.4198 36.1936C36.5304 36.0844 36.5982 35.9336 36.5982 35.7676V13.4412C36.5982 13.2752 36.5304 13.1245 36.4198 13.0138C36.3105 12.9046 36.1598 12.8368 35.9938 12.8368ZM23.6563 18.3887H27.1929C27.6494 18.3887 28.0629 18.5754 28.3631 18.8755C28.6632 19.1743 28.8485 19.5892 28.8485 20.0443V35.7676C28.8485 36.2227 28.6632 36.6376 28.3631 36.9378C28.0629 37.2379 27.6494 37.4232 27.1929 37.4232H23.6563C23.1999 37.4232 22.7849 37.2379 22.4862 36.9378C22.186 36.6376 21.9993 36.2227 21.9993 35.7676V20.0443C21.9993 19.5892 22.186 19.1743 22.4862 18.8755C22.7849 18.5754 23.1999 18.3887 23.6563 18.3887ZM27.1929 19.4398H23.6563C23.4903 19.4398 23.3382 19.509 23.2289 19.6183C23.1196 19.7275 23.0505 19.8797 23.0505 20.0443V35.7676C23.0505 35.9336 23.1196 36.0844 23.2289 36.1936C23.3382 36.3043 23.4903 36.3721 23.6563 36.3721H27.1929C27.3589 36.3721 27.5097 36.3043 27.6189 36.1936C27.7296 36.0844 27.7974 35.9336 27.7974 35.7676V20.0443C27.7974 19.8797 27.7296 19.7275 27.6189 19.6183C27.5097 19.509 27.3589 19.4398 27.1929 19.4398ZM14.8555 15.1812H18.3921C18.8485 15.1812 19.2621 15.3679 19.5622 15.6667C19.8624 15.9668 20.0477 16.3817 20.0477 16.8368V35.7676C20.0477 36.2227 19.8624 36.6376 19.5622 36.9378C19.2621 37.2379 18.8485 37.4232 18.3921 37.4232H14.8555C14.399 37.4232 13.9841 37.2379 13.6853 36.9378C13.3852 36.6376 13.1985 36.2227 13.1985 35.7676V16.8368C13.1985 16.3817 13.3852 15.9668 13.6853 15.6667C13.9841 15.3679 14.399 15.1812 14.8555 15.1812ZM18.3921 16.2324H14.8555C14.6895 16.2324 14.5373 16.3015 14.4281 16.4108C14.3188 16.5201 14.2497 16.6722 14.2497 16.8368V35.7676C14.2497 35.9336 14.3188 36.0844 14.4281 36.1936C14.5373 36.3043 14.6895 36.3721 14.8555 36.3721H18.3921C18.5581 36.3721 18.7089 36.3043 18.8181 36.1936C18.9288 36.0844 18.9965 35.9336 18.9965 35.7676V16.8368C18.9965 16.6722 18.9288 16.5201 18.8181 16.4108C18.7089 16.3015 18.5581 16.2324 18.3921 16.2324Z" fill="#DC1D28"/>
</svg>
