<svg width="41" height="40" viewBox="0 0 41 40" fill="none" xmlns="http://www.w3.org/2000/svg">
<path d="M5.3738 15.0061C5.37986 14.7234 5.36884 14.147 5.34217 13.8676L7.61745 13.8453C7.60984 14.1274 7.62847 14.7011 7.64908 14.9838L5.3738 15.0061ZM8.46621 8.63041C8.46621 8.55005 8.40306 8.48754 8.32172 8.48754H4.66964C4.5883 8.48754 4.52515 8.55005 4.52515 8.63041V9.7377H8.46621V8.63041ZM2.35821 14.0328H4.6606C4.60285 13.597 4.87221 13.1655 5.34217 13.1666H7.64908C8.11992 13.1656 8.38785 13.5968 8.33076 14.0328H10.6331C11.2065 14.0328 11.7572 13.7605 12.1048 13.305C12.6244 12.7368 12.453 11.6429 12.4795 10.9432C12.4795 10.6619 12.2583 10.4387 11.9739 10.4387H1.01745C0.732984 10.4387 0.507264 10.6619 0.507264 10.9431C0.533055 11.6329 0.36112 12.7479 0.886514 13.3006C1.22939 13.7618 1.78532 14.025 2.35821 14.0328ZM11.8701 18.4351C12.0765 18.433 12.0274 18.1791 12.0325 18.0467C12.0325 16.8054 12.019 15.5642 12.0325 14.323C11.1059 14.965 9.52449 14.6729 8.33076 14.7338V15.0061C8.33076 15.3812 8.02381 15.6848 7.64908 15.6848H5.34217C4.96755 15.6848 4.6606 15.3812 4.6606 15.0061V14.7338H2.35821C1.87371 14.7343 1.36959 14.5823 0.963223 14.323C0.958705 14.323 0.958705 18.2699 0.958705 18.2699C0.958705 18.3592 1.03101 18.4351 1.12127 18.4351C1.12127 18.4351 11.8701 18.4351 11.8701 18.4351ZM16.1362 6.00958L15.0302 5.84886V4.97375L16.1317 4.80856C16.3122 4.78177 16.4612 4.64783 16.5019 4.46923C16.6012 4.04956 16.7636 3.65219 16.9893 3.28608C17.0842 3.12979 17.0752 2.93337 16.9623 2.78602L16.2986 1.90198L16.9217 1.28586L17.82 1.93323C17.969 2.04485 18.1677 2.04932 18.3257 1.95558C18.6913 1.72787 19.0931 1.56268 19.5129 1.45997C19.6935 1.4198 19.8289 1.27245 19.856 1.08941L20.014 0H20.8989L21.0659 1.08494C21.093 1.26351 21.233 1.41086 21.4135 1.45106C21.8468 1.54927 22.2577 1.71893 22.6369 1.95558C22.7949 2.04932 22.9935 2.04485 23.1425 1.93323L24.0409 1.28586L24.6638 1.90198L24.0002 2.78602C23.8874 2.93337 23.8783 3.12979 23.9731 3.28608C24.1988 3.65219 24.3614 4.04956 24.4607 4.46923C24.5014 4.64783 24.6503 4.78177 24.8309 4.80856L25.9324 4.97375V5.84886L24.8264 6.00958C24.6459 6.0319 24.4969 6.16587 24.4517 6.34444C24.3478 6.76413 24.1809 7.15704 23.9506 7.51868C23.8558 7.67497 23.8603 7.87586 23.9731 8.02321L24.6278 8.90723L24.0047 9.52784L23.1109 8.86706C22.962 8.75544 22.7633 8.7465 22.6053 8.84027C22.2351 9.06351 21.8334 9.22424 21.409 9.32248C21.2284 9.36711 21.093 9.50999 21.0659 9.69303L20.8989 10.778H20.014L19.856 9.68412C19.8289 9.50552 19.6935 9.35817 19.5129 9.31354C19.1067 9.2153 18.7139 9.05904 18.3572 8.84027C18.1993 8.7465 18.0006 8.75544 17.8517 8.86706L16.9578 9.52784L16.3303 8.90723L16.9893 8.02321C17.0977 7.87586 17.1067 7.67497 17.0119 7.52315C16.7817 7.15704 16.6102 6.75967 16.5109 6.34444C16.4657 6.16587 16.3167 6.0319 16.1362 6.00958ZM17.3009 5.389C17.3009 7.12131 18.7274 8.5322 20.4791 8.5322C22.2351 8.5322 23.6616 7.12131 23.6616 5.38905C23.5131 1.23231 17.4513 1.22675 17.3009 5.389ZM21.3864 22.6632C21.3864 22.6364 21.3006 22.1409 21.3006 22.1409C21.2058 21.5604 20.7363 21.3551 20.3616 21.3551C19.9915 21.3551 19.522 21.5604 19.4272 22.1409L19.3368 22.6632C20.0063 22.4112 20.7212 22.4541 21.3864 22.6632ZM33.7785 24.9983H23.3231C23.3231 24.9983 23.3637 25.6993 23.3231 25.8913H34.2299C34.4827 25.8913 34.6814 25.6904 34.6814 25.4448V22.3775H33.7785V24.9983ZM6.49336 25.8913H17.4047C17.4047 25.8913 17.3324 25.3377 17.4047 24.9983H6.9448V22.3775H6.04192V25.4448C6.04192 25.6904 6.24064 25.8913 6.49336 25.8913ZM39.313 20.6809H29.1556C28.9299 20.6809 28.7494 20.8595 28.7494 21.0827C28.7494 21.3059 28.9299 21.4845 29.1556 21.4845C31.6915 21.4846 36.7764 21.4844 39.313 21.4845C39.5343 21.4845 39.7194 21.3059 39.7194 21.0827C39.7194 20.8595 39.5343 20.6809 39.313 20.6809ZM11.5721 21.4845C11.7978 21.4845 11.9784 21.3059 11.9784 21.0827C11.9784 20.8595 11.7978 20.6809 11.5721 20.6809H1.41466C1.18894 20.6809 1.00841 20.8595 1.00841 21.0827C1.00841 21.3059 1.18894 21.4845 1.41466 21.4845C3.95049 21.4846 9.03569 21.4844 11.5721 21.4845ZM18.8502 24.016C19.606 23.2351 20.85 23.1861 21.686 23.8694C23.2857 25.1595 22.0866 27.8208 20.0501 27.4897C18.4171 27.2486 17.7077 25.1967 18.8502 24.016ZM20.9124 25.7797C21.3033 25.1797 20.4991 24.5102 19.9508 24.9536C19.2114 25.6156 20.3647 26.599 20.9124 25.7797ZM33.5572 38.0043H7.17053C6.61526 38.0043 6.16382 38.4507 6.16382 38.9999C6.16382 39.5491 6.61526 40 7.17053 40H33.5572C34.1125 40 34.564 39.5491 34.564 38.9999C34.564 38.4507 34.1125 38.0043 33.5572 38.0043ZM23.7926 37.1068L22.2397 27.7576C21.1743 28.612 19.5539 28.6145 18.4882 27.762L16.9352 37.1068H23.7926ZM40.4913 11.3941C40.4688 11.287 40.4101 11.1932 40.3153 11.1307L34.4737 7.11687C34.3285 7.02103 34.1381 7.02081 33.9952 7.11687C33.9952 7.11687 28.1536 11.1307 28.1536 11.1307C27.6974 11.4349 28.1821 12.1131 28.6275 11.8093C29.3515 11.314 33.4459 8.49574 34.2343 7.96069L34.4917 8.13483C34.4917 8.13483 39.0242 11.2468 39.0242 11.2468C39.0297 11.2583 39.8323 11.8005 39.8413 11.8093C40.1196 12.0063 40.5678 11.7423 40.4913 11.3941ZM34.2343 9.04563L30.1489 11.8495V17.8904H38.3154V11.8495L34.2343 9.04563ZM28.3205 23.65L28.3747 23.7348L28.7042 23.6544L28.3205 23.65Z" fill="#DC1D28"/>
</svg>
