<svg width="498" height="377" viewBox="0 0 498 377" fill="none" xmlns="http://www.w3.org/2000/svg">
<ellipse cx="198.714" cy="301.825" rx="74.9824" ry="98.4229" transform="rotate(90 198.714 301.825)" fill="white" fill-opacity="0.1"/>
<ellipse cx="398.65" cy="149.821" rx="75.4" ry="98.9711" transform="rotate(90 398.65 149.821)" fill="white" fill-opacity="0.1"/>
<path opacity="0.1" d="M100.291 -0.978615C100.291 8.92306 102.851 18.7278 107.825 27.8757C112.799 37.0237 120.089 45.3357 129.279 52.3372C138.469 59.3388 149.38 64.8927 161.388 68.6819C173.395 72.4711 186.265 74.4214 199.262 74.4214C212.259 74.4214 225.129 72.4711 237.137 68.6819C249.144 64.8927 260.055 59.3388 269.245 52.3372C278.436 45.3357 285.726 37.0236 290.7 27.8757C295.673 18.7277 298.233 8.92303 298.233 -0.978644L199.262 -0.978618L100.291 -0.978615Z" fill="white"/>
<path opacity="0.1" d="M0.842743 225.354C13.8905 225.354 26.8106 223.396 38.8652 219.592C50.9198 215.788 61.8729 210.213 71.0991 203.184C80.3253 196.155 87.6439 187.81 92.6371 178.627C97.6302 169.443 100.2 159.6 100.2 149.66C100.2 139.719 97.6302 129.876 92.637 120.693C87.6439 111.509 80.3252 103.165 71.099 96.1357C61.8728 89.1068 50.9198 83.5312 38.8652 79.7272C26.8105 75.9232 13.8905 73.9654 0.842695 73.9654L0.842734 149.66L0.842743 225.354Z" fill="white"/>
<rect opacity="0.2" x="298.943" y="74.0128" width="151.338" height="198.651" transform="rotate(90 298.943 74.0128)" fill="white"/>
<path d="M497.592 225.352L391.763 303.77L298.943 376.69L298.943 225.352L497.592 225.352Z" fill="white" fill-opacity="0.15"/>
<path d="M298.943 74.0128L404.772 -4.40527L497.592 -77.3251L497.592 74.0128L298.943 74.0128Z" fill="white" fill-opacity="0.15"/>
</svg>
