<svg width="53" height="52" viewBox="0 0 53 52" fill="none" xmlns="http://www.w3.org/2000/svg">
<path d="M2.42668 21.4884H11.1214L11.0905 21.4357V21.4292C10.4919 20.3918 10.2861 19.1279 10.6176 17.8896L14.4227 3.68388L14.4812 3.46483C14.8131 2.22561 15.6259 1.23176 16.6665 0.630835C17.6354 0.0711846 18.8011 -0.14494 19.9594 0.0994595H19.9864L20.2048 0.15796L44.1596 6.57898C45.3969 6.91048 46.3891 7.72103 46.99 8.76006L46.9929 8.75843C47.5926 9.79681 47.7986 11.063 47.4661 12.3045L45.0059 21.4887H52.7402V46.3687H0.760075V21.4884H2.42668ZM0.75 48.6655H52.75V52H0.75V48.6655ZM26.75 26.403C27.7381 26.4018 28.7168 26.5958 29.6297 26.9741C30.5425 27.3524 31.3716 27.9074 32.0693 28.6072L32.066 28.6104C33.4291 29.9751 34.2728 31.8559 34.2728 33.9281C34.2728 36.0006 33.4294 37.881 32.066 39.2457L32.0693 39.249C31.3716 39.9487 30.5425 40.5037 29.6296 40.8819C28.7168 41.2602 27.7381 41.4543 26.75 41.4531C24.6801 41.4531 22.8012 40.6107 21.4372 39.249L21.434 39.2457L21.4304 39.2425C20.0693 37.8781 19.2272 35.9986 19.2272 33.9277C19.2272 31.8568 20.0696 29.9777 21.4304 28.6133L21.434 28.6101L21.4372 28.6068C22.8012 27.2454 24.6801 26.403 26.75 26.403ZM29.7127 30.9647C29.3241 30.575 28.8624 30.266 28.354 30.0553C27.8456 29.8446 27.3006 29.7365 26.7503 29.7372C26.2004 29.7354 25.6556 29.8423 25.1472 30.0519C24.6388 30.2614 24.1769 30.5695 23.788 30.9582L23.7814 30.9647C23.3928 31.3539 23.0849 31.8161 22.8754 32.3246C22.666 32.8331 22.559 33.3781 22.5607 33.9281C22.5607 35.0899 23.0274 36.1377 23.7814 36.8914L23.788 36.8979C24.1769 37.2866 24.6389 37.5945 25.1473 37.8041C25.6557 38.0136 26.2004 38.1206 26.7503 38.1189C27.907 38.1189 28.9548 37.65 29.7127 36.8914H29.7192C30.1078 36.5022 30.4156 36.04 30.6251 35.5315C30.8345 35.0229 30.9414 34.478 30.9396 33.9281C30.9396 32.7662 30.4729 31.7184 29.7192 30.9647H29.7127ZM11.1074 24.8229C10.6332 26.3634 9.86332 27.6712 8.78985 28.7391C7.58312 29.939 6.02117 30.8042 4.09328 31.3229V36.5336C6.02117 37.0523 7.58345 37.9171 8.78985 39.1173C9.86332 40.1853 10.6336 41.4931 11.1074 43.0339H42.3926C42.8664 41.4931 43.6367 40.1853 44.7101 39.1173C45.9165 37.9171 47.4791 37.0523 49.4067 36.5336V31.3229C47.4788 30.8042 45.9165 29.9393 44.7101 28.7391C43.6367 27.6712 42.8667 26.3634 42.3926 24.8229H11.1074ZM4.09328 27.8372C5.0478 27.4791 5.83073 26.9932 6.44595 26.3812C6.89185 25.9379 7.25845 25.4179 7.54738 24.8229H4.09328V27.8372ZM45.9526 24.8229C46.2416 25.4179 46.6081 25.9379 47.054 26.3812C47.6689 26.9929 48.4519 27.4791 49.4067 27.8372V24.8229H45.9526ZM49.4067 40.0192C48.4519 40.377 47.6689 40.8632 47.054 41.4752C46.6081 41.9185 46.2412 42.4388 45.9526 43.0339H49.4071L49.4067 40.0192ZM7.5477 43.0339C7.2591 42.4388 6.89185 41.9185 6.44595 41.4752C5.83073 40.8636 5.0478 40.3777 4.09328 40.0192V43.0339H7.5477ZM18.8518 21.4884H41.5593L43.0608 15.8828L16.5076 8.76526L13.8332 18.7493C13.7405 19.0936 13.7878 19.4606 13.9648 19.7701L13.9677 19.7685C14.0555 19.9219 14.1727 20.0564 14.3126 20.1644C14.4524 20.2725 14.6123 20.3518 14.7829 20.398L18.8518 21.4884ZM43.3 9.79616L19.5636 3.43396H19.563L19.3445 3.37513C19.1733 3.329 18.9945 3.31711 18.8187 3.34014C18.6428 3.36317 18.4731 3.42068 18.3195 3.50936C18.0151 3.68544 17.7924 3.97448 17.6997 4.31373L17.6968 4.32478L17.3689 5.54841L43.922 12.6653L44.249 11.4442C44.2947 11.2739 44.3063 11.0961 44.2832 10.9212C44.2602 10.7463 44.2028 10.5777 44.1144 10.425V10.4185C44.0263 10.2663 43.909 10.133 43.7692 10.0262C43.6295 9.91936 43.47 9.84119 43.3 9.79616ZM17.989 18.0151C17.5624 17.9009 17.1987 17.622 16.9777 17.2397C16.7567 16.8574 16.6966 16.403 16.8105 15.9764C16.9244 15.5498 17.2031 15.186 17.5853 14.9649C17.9674 14.7439 18.4217 14.6837 18.8483 14.7976L20.1564 15.1483C20.5753 15.269 20.9302 15.5493 21.1448 15.9288C21.3594 16.3083 21.4165 16.7569 21.304 17.1781C21.1915 17.5994 20.9183 17.9597 20.5431 18.1817C20.1678 18.4037 19.7205 18.4696 19.2971 18.3654L17.989 18.0151ZM23.6872 19.6222C23.2607 19.5079 22.897 19.229 22.676 18.8467C22.4551 18.4645 22.3949 18.0101 22.5087 17.5835C22.6227 17.1569 22.9013 16.7931 23.2835 16.5721C23.6656 16.351 24.12 16.2908 24.5465 16.4047L25.8546 16.7554C26.2811 16.8697 26.6448 17.1486 26.8658 17.5309C27.0867 17.9131 27.1469 18.3675 27.0331 18.7941C26.9192 19.2206 26.6405 19.5845 26.2583 19.8055C25.8762 20.0266 25.4219 20.0868 24.9953 19.9729L23.6872 19.6222Z" fill="#F9F9F9"/>
</svg>
