<svg width="18" height="18" viewBox="0 0 18 18" fill="none" xmlns="http://www.w3.org/2000/svg">
<g clip-path="url(#clip0_528_615)">
<path d="M18 7.5V14.22C18 15.26 17.63 16.15 16.89 16.89C16.15 17.63 15.26 18 14.22 18H3.78C2.74 18 1.85 17.63 1.11 16.89C0.37 16.15 0 15.28 0 14.28V6C0 4.96 0.37 4.08 1.11 3.36C1.85 2.64 2.72 2.26 3.72 2.22H9.78C9.98 2.22 10.15 2.3 10.29 2.46C10.43 2.62 10.5 2.8 10.5 3C10.5 3.2 10.43 3.38 10.29 3.54C10.15 3.7 9.98 3.78 9.78 3.78H3.78C3.34 3.78 2.94 3.88 2.58 4.08C2.22 4.28 1.96 4.56 1.8 4.92L7.38 10.56C7.82 11 8.36 11.22 9 11.22C9.64 11.22 10.18 11 10.62 10.56L13.44 7.74C13.6 7.58 13.78 7.5 13.98 7.5C14.18 7.5 14.35 7.58 14.49 7.74C14.63 7.9 14.71 8.08 14.73 8.28C14.75 8.48 14.68 8.64 14.52 8.76L11.64 11.64C10.92 12.36 10.04 12.72 9 12.72C7.96 12.72 7.08 12.36 6.36 11.64L1.5 6.78V14.22C1.5 14.86 1.72 15.4 2.16 15.84C2.6 16.28 3.12 16.5 3.72 16.5H14.28C14.88 16.5 15.4 16.28 15.84 15.84C16.28 15.4 16.5 14.86 16.5 14.22V7.5C16.5 7.3 16.57 7.12 16.71 6.96C16.85 6.8 17.03 6.72 17.25 6.72C17.47 6.72 17.65 6.8 17.79 6.96C17.93 7.12 18 7.3 18 7.5ZM12.78 3.72H14.28V5.22C14.24 5.46 14.3 5.65 14.46 5.79C14.62 5.93 14.8 6 15 6C15.2 6 15.38 5.93 15.54 5.79C15.7 5.65 15.78 5.48 15.78 5.28V3.72H17.28C17.48 3.72 17.65 3.65 17.79 3.51C17.93 3.37 18 3.2 18 3C18 2.8 17.93 2.62 17.79 2.46C17.65 2.3 17.48 2.22 17.28 2.22H15.78V0.720001C15.78 0.52 15.7 0.35 15.54 0.210001C15.38 0.0699997 15.2 0 15 0C14.8 0 14.63 0.0699997 14.49 0.210001C14.35 0.35 14.26 0.52 14.22 0.720001V2.22H12.78C12.54 2.22 12.35 2.3 12.21 2.46C12.07 2.62 12 2.8 12 3C12 3.2 12.07 3.38 12.21 3.54C12.35 3.7 12.52 3.78 12.72 3.78L12.78 3.72Z" fill="#DC1D28"/>
</g>
<defs>
<clipPath id="clip0_528_615">
<rect width="18" height="18" fill="white" transform="matrix(1 0 0 -1 0 18)"/>
</clipPath>
</defs>
</svg>
