<svg width="13" height="13" viewBox="0 0 13 13" fill="none" xmlns="http://www.w3.org/2000/svg">
<path d="M6.80117 3.60547C8.52383 3.60547 9.9457 5.02734 9.9457 6.75C9.9457 8.5 8.52383 9.89453 6.80117 9.89453C5.05117 9.89453 3.65664 8.5 3.65664 6.75C3.65664 5.02734 5.05117 3.60547 6.80117 3.60547ZM6.80117 8.80078C7.92227 8.80078 8.82461 7.89844 8.82461 6.75C8.82461 5.62891 7.92227 4.72656 6.80117 4.72656C5.65273 4.72656 4.75039 5.62891 4.75039 6.75C4.75039 7.89844 5.68008 8.80078 6.80117 8.80078ZM10.7934 3.49609C10.7934 3.90625 10.4652 4.23438 10.0551 4.23438C9.64492 4.23438 9.3168 3.90625 9.3168 3.49609C9.3168 3.08594 9.64492 2.75781 10.0551 2.75781C10.4652 2.75781 10.7934 3.08594 10.7934 3.49609ZM12.8715 4.23438C12.9262 5.24609 12.9262 8.28125 12.8715 9.29297C12.8168 10.2773 12.598 11.125 11.8871 11.8633C11.1762 12.5742 10.3012 12.793 9.3168 12.8477C8.30508 12.9023 5.26992 12.9023 4.2582 12.8477C3.27383 12.793 2.42617 12.5742 1.68789 11.8633C0.976953 11.125 0.758203 10.2773 0.703516 9.29297C0.648828 8.28125 0.648828 5.24609 0.703516 4.23438C0.758203 3.25 0.976953 2.375 1.68789 1.66406C2.42617 0.953125 3.27383 0.734375 4.2582 0.679688C5.26992 0.625 8.30508 0.625 9.3168 0.679688C10.3012 0.734375 11.1762 0.953125 11.8871 1.66406C12.598 2.375 12.8168 3.25 12.8715 4.23438ZM11.559 10.3594C11.8871 9.56641 11.8051 7.65234 11.8051 6.75C11.8051 5.875 11.8871 3.96094 11.559 3.14062C11.3402 2.62109 10.9301 2.18359 10.4105 1.99219C9.59023 1.66406 7.67617 1.74609 6.80117 1.74609C5.89883 1.74609 3.98477 1.66406 3.1918 1.99219C2.64492 2.21094 2.23477 2.62109 2.01602 3.14062C1.68789 3.96094 1.76992 5.875 1.76992 6.75C1.76992 7.65234 1.68789 9.56641 2.01602 10.3594C2.23477 10.9062 2.64492 11.3164 3.1918 11.5352C3.98477 11.8633 5.89883 11.7812 6.80117 11.7812C7.67617 11.7812 9.59023 11.8633 10.4105 11.5352C10.9301 11.3164 11.3676 10.9062 11.559 10.3594Z" fill="white"/>
</svg>
