<svg width="16" height="16" viewBox="0 0 16 16" fill="none" xmlns="http://www.w3.org/2000/svg">
<path d="M13.9746 0.1875C14.539 0.1875 15.0371 0.685547 15.0371 1.2832V14C15.0371 14.5977 14.539 15.0625 13.9746 15.0625H1.19137C0.626914 15.0625 0.16207 14.5977 0.16207 14V1.2832C0.16207 0.685547 0.626914 0.1875 1.19137 0.1875H13.9746ZM4.64449 12.9375V5.86523H2.45309V12.9375H4.64449ZM3.54879 4.86914C4.24605 4.86914 4.81051 4.30469 4.81051 3.60742C4.81051 2.91016 4.24605 2.3125 3.54879 2.3125C2.81832 2.3125 2.25387 2.91016 2.25387 3.60742C2.25387 4.30469 2.81832 4.86914 3.54879 4.86914ZM12.9121 12.9375V9.05273C12.9121 7.16016 12.4804 5.66602 10.2558 5.66602C9.19332 5.66602 8.46285 6.26367 8.16402 6.82812H8.13082V5.86523H6.03902V12.9375H8.23043V9.45117C8.23043 8.52148 8.39645 7.625 9.55855 7.625C10.6875 7.625 10.6875 8.6875 10.6875 9.48438V12.9375H12.9121Z" fill="#F9F9F9"/>
</svg>
