<svg width="18" height="18" viewBox="0 0 18 18" fill="none" xmlns="http://www.w3.org/2000/svg">
<g clip-path="url(#clip0_528_625)">
<path d="M8.21996 1.90735e-06C6.53996 1.90735e-06 5.00996 0.460003 3.62996 1.38C2.24996 2.3 1.23996 3.54 0.599961 5.1C-0.0400391 6.66 -0.200039 8.26 0.119961 9.9C0.439961 11.54 1.19996 12.94 2.39996 14.1L5.33996 16.86C5.85996 17.34 6.46996 17.67 7.16996 17.85C7.86996 18.03 8.55996 18.03 9.23996 17.85C9.91996 17.67 10.52 17.34 11.04 16.86L14.04 14.1C15.24 12.9 16 11.48 16.32 9.84C16.64 8.2 16.48 6.61 15.84 5.07C15.2 3.53 14.19 2.3 12.81 1.38C11.43 0.460003 9.89996 1.90735e-06 8.21996 1.90735e-06ZM13.02 13.02L10.02 15.78C9.49996 16.26 8.88996 16.5 8.18996 16.5C7.48996 16.5 6.89996 16.24 6.41996 15.72L3.41996 13.02C2.33996 11.94 1.69996 10.64 1.49996 9.12C1.29996 7.6 1.58996 6.18 2.36996 4.86C3.14996 3.54 4.23996 2.59 5.63996 2.01C7.03996 1.43 8.47996 1.34 9.95996 1.74C11.44 2.14 12.64 2.94 13.56 4.14C14.48 5.34 14.96 6.7 15 8.22C15 9.14 14.83 10.01 14.49 10.83C14.15 11.65 13.66 12.38 13.02 13.02ZM11.76 5.76L9.47996 4.2C9.11996 3.92 8.69996 3.78 8.21996 3.78C7.73996 3.78 7.31996 3.92 6.95996 4.2L4.67996 5.76C4.39996 5.96 4.16996 6.22 3.98996 6.54C3.80996 6.86 3.71996 7.22 3.71996 7.62V10.14C3.71996 10.66 3.89996 11.1 4.25996 11.46C4.61996 11.82 5.05996 12 5.57996 12H10.86C11.38 12 11.82 11.82 12.18 11.46C12.54 11.1 12.72 10.66 12.72 10.14V7.62C12.72 7.22 12.63 6.86 12.45 6.54C12.27 6.22 12.04 5.96 11.76 5.76ZM11.22 10.14C11.22 10.22 11.18 10.3 11.1 10.38C11.02 10.46 10.94 10.5 10.86 10.5H9.71996V9C9.71996 8.8 9.64996 8.62 9.50996 8.46C9.36996 8.3 9.19996 8.22 8.99996 8.22H7.49996C7.25996 8.22 7.06996 8.3 6.92996 8.46C6.78996 8.62 6.71996 8.8 6.71996 9V10.5H5.57996C5.49996 10.5 5.41996 10.46 5.33996 10.38C5.25996 10.3 5.21996 10.22 5.21996 10.14V7.62C5.21996 7.34 5.31996 7.12 5.51996 6.96L7.79996 5.4C7.91996 5.32 8.05996 5.28 8.21996 5.28C8.37996 5.28 8.51996 5.32 8.63996 5.4L10.92 6.96C11.12 7.12 11.22 7.34 11.22 7.62V10.14Z" fill="#DC1D28"/>
</g>
<defs>
<clipPath id="clip0_528_625">
<rect width="18" height="18" fill="white" transform="matrix(1 0 0 -1 0 18)"/>
</clipPath>
</defs>
</svg>
