<svg width="19" height="21" viewBox="0 0 19 21" fill="none" xmlns="http://www.w3.org/2000/svg">
<g clip-path="url(#clip0_1591_4371)">
<g clip-path="url(#clip1_1591_4371)">
<path fill-rule="evenodd" clip-rule="evenodd" d="M1.96729 3.11011C1.51973 3.11011 1.09051 3.2879 0.774042 3.60436C0.457575 3.92083 0.279785 4.35005 0.279785 4.79761L0.279785 17.1726C0.279785 17.6202 0.457575 18.0494 0.774042 18.3659C1.09051 18.6823 1.51973 18.8601 1.96729 18.8601H16.5923C17.0398 18.8601 17.4691 18.6823 17.7855 18.3659C18.102 18.0494 18.2798 17.6202 18.2798 17.1726V4.79761C18.2798 4.35005 18.102 3.92083 17.7855 3.60436C17.4691 3.2879 17.0398 3.11011 16.5923 3.11011H1.96729ZM4.35791 5.60761C4.24331 5.50975 4.11022 5.43592 3.96654 5.39049C3.82286 5.34505 3.67151 5.32895 3.52149 5.34314C3.37146 5.35732 3.22581 5.4015 3.09319 5.47305C2.96057 5.54461 2.84367 5.64208 2.74944 5.75967C2.65521 5.87727 2.58557 6.0126 2.54465 6.15763C2.50373 6.30267 2.49236 6.45444 2.51122 6.60395C2.53008 6.75346 2.57879 6.89765 2.65445 7.02798C2.73011 7.1583 2.83118 7.2721 2.95166 7.36261L8.57666 11.8626C8.77619 12.0224 9.02418 12.1094 9.27979 12.1094C9.53539 12.1094 9.78338 12.0224 9.98291 11.8626L15.6079 7.36261C15.7284 7.2721 15.8295 7.1583 15.9051 7.02798C15.9808 6.89765 16.0295 6.75346 16.0484 6.60395C16.0672 6.45444 16.0558 6.30267 16.0149 6.15763C15.974 6.0126 15.9044 5.87727 15.8101 5.75967C15.7159 5.64208 15.599 5.54461 15.4664 5.47305C15.3338 5.4015 15.1881 5.35732 15.0381 5.34314C14.8881 5.32895 14.7367 5.34505 14.593 5.39049C14.4493 5.43592 14.3163 5.50975 14.2017 5.60761L9.27979 9.54511L4.35791 5.60761Z" fill="#DC1D28"/>
</g>
</g>
<defs>
<clipPath id="clip0_1591_4371">
<rect width="18" height="20" fill="white" transform="translate(0.279785 0.985107)"/>
</clipPath>
<clipPath id="clip1_1591_4371">
<rect width="18" height="20" fill="white" transform="translate(0.279785 0.985107)"/>
</clipPath>
</defs>
</svg>
