<svg width="18" height="18" viewBox="0 0 18 18" fill="none" xmlns="http://www.w3.org/2000/svg">
<g clip-path="url(#clip0_528_620)">
<path d="M9.74647 0.720005C9.74647 0.520006 9.81647 0.350006 9.95647 0.210005C10.0965 0.0700054 10.2665 5.72205e-06 10.4665 5.72205e-06C11.8265 5.72205e-06 13.0765 0.340006 14.2165 1.02001C15.3565 1.7 16.2665 2.61001 16.9465 3.75C17.6265 4.89001 17.9665 6.14001 17.9665 7.5C17.9665 7.70001 17.8965 7.88 17.7565 8.04C17.6165 8.20001 17.4365 8.27001 17.2165 8.25C16.9965 8.23001 16.8165 8.15001 16.6765 8.01C16.5365 7.87 16.4665 7.70001 16.4665 7.5C16.4665 6.42 16.1965 5.42 15.6565 4.5C15.1165 3.58001 14.3865 2.85001 13.4665 2.31001C12.5465 1.77001 11.5465 1.50001 10.4665 1.50001C10.2665 1.50001 10.0965 1.43001 9.95647 1.29C9.81647 1.15001 9.74647 0.980005 9.74647 0.780005V0.720005ZM10.4665 4.5C11.3065 4.5 12.0165 4.79 12.5965 5.37001C13.1765 5.95001 13.4665 6.66001 13.4665 7.5C13.4665 7.70001 13.5365 7.88 13.6765 8.04C13.8165 8.20001 13.9965 8.27001 14.2165 8.25C14.4365 8.23001 14.6165 8.15001 14.7565 8.01C14.8965 7.87 14.9665 7.70001 14.9665 7.5C14.9665 6.70001 14.7665 5.95001 14.3665 5.25C13.9665 4.55 13.4165 4 12.7165 3.60001C12.0165 3.20001 11.2665 3 10.4665 3C10.2665 3 10.0965 3.07001 9.95647 3.21C9.81647 3.35001 9.74647 3.53001 9.74647 3.75C9.74647 3.97001 9.81647 4.15001 9.95647 4.29C10.0965 4.43001 10.2665 4.5 10.4665 4.5ZM17.3065 12.54C17.7465 13.02 17.9665 13.58 17.9665 14.22C17.9665 14.86 17.7465 15.4 17.3065 15.84L16.5865 16.62C15.4265 17.74 13.9265 18.16 12.0865 17.88C10.4465 17.64 8.72647 16.88 6.92647 15.6C5.16647 14.36 3.66647 12.86 2.42647 11.1C1.10647 9.3 0.326471 7.58 0.0864706 5.94001C-0.193529 4.10001 0.206471 2.58001 1.28647 1.38L2.18647 0.660006C2.62647 0.220005 3.16647 5.72205e-06 3.80647 5.72205e-06C4.44647 5.72205e-06 4.98647 0.220005 5.42647 0.660006L6.80647 2.52001C7.24647 2.96 7.46647 3.49001 7.46647 4.11001C7.46647 4.73001 7.24647 5.26 6.80647 5.70001L5.96647 6.84C6.44647 8 7.13647 9.03001 8.03647 9.93001C8.93647 10.83 9.96647 11.52 11.1265 12L12.2665 11.16C12.7065 10.72 13.2365 10.5 13.8565 10.5C14.4765 10.5 15.0065 10.72 15.4465 11.16L17.3065 12.54ZM16.2265 13.62C15.6265 13.18 15.0265 12.72 14.4265 12.24C14.2665 12.08 14.0765 12 13.8565 12C13.6365 12 13.4465 12.08 13.2865 12.24L11.7265 13.44C11.5265 13.64 11.2865 13.68 11.0065 13.56C9.48647 13 8.14647 12.14 6.98647 10.98C5.82647 9.82 4.96647 8.48001 4.40647 6.96C4.28647 6.68001 4.32647 6.44001 4.52647 6.24001L5.72647 4.68001C5.88647 4.52001 5.96647 4.33001 5.96647 4.11001C5.96647 3.89001 5.88647 3.70001 5.72647 3.54L4.34647 1.74001C4.18647 1.58001 3.99647 1.50001 3.77647 1.50001C3.55647 1.50001 3.36647 1.58001 3.20647 1.74001L2.30647 2.52001C1.50647 3.48001 1.28647 4.72001 1.64647 6.24001C1.96647 7.60001 2.70647 9.02 3.86647 10.5C4.94647 11.94 6.23647 13.2 7.73647 14.28C9.23647 15.36 10.6665 16.04 12.0265 16.32C13.5065 16.64 14.6665 16.4 15.5065 15.6L16.1665 14.82C16.3665 14.66 16.4665 14.47 16.4665 14.25C16.4665 14.03 16.3865 13.82 16.2265 13.62Z" fill="#DC1D28"/>
</g>
<defs>
<clipPath id="clip0_528_620">
<rect width="18" height="18" fill="white" transform="matrix(1 0 0 -1 0 18)"/>
</clipPath>
</defs>
</svg>
