<svg width="49" height="50" viewBox="0 0 49 50" fill="none" xmlns="http://www.w3.org/2000/svg">
<path d="M39.3667 14.1715H9.72833L0.911133 25.6197L24.5475 49.1639L48.1839 25.619L39.3667 14.1715ZM37.586 17.3288L42.655 23.9098H35.3351L32.84 17.3288H37.586ZM19.8967 17.3288H29.198L31.6934 23.9098H17.4013L19.8967 17.3288ZM11.5083 17.3288H16.2553L13.7599 23.9098H6.44003L11.5083 17.3288ZM7.04116 27.0671H13.8303L19.3036 39.2815L7.04116 27.0671ZM17.5488 27.0671H31.5455L24.5475 42.6846L17.5488 27.0671ZM29.7914 39.2812L35.2647 27.0668H42.0535L29.7914 39.2812Z" fill="#F9F9F9"/>
<path d="M24.9018 0V9.08264H24.248V0H24.9018Z" fill="#F9F9F9"/>
<path d="M40.5786 2.4458L41.0406 2.87018L34.0492 9.29627L33.5869 8.87189L40.5786 2.4458Z" fill="#F9F9F9"/>
<path d="M8.51278 2.44763L15.5088 8.87003L15.0468 9.29472L8.05078 2.87201L8.51278 2.44763Z" fill="#F9F9F9"/>
</svg>
