<svg width="53" height="52" viewBox="0 0 53 52" fill="none" xmlns="http://www.w3.org/2000/svg">
<path d="M26.4398 31.5844C23.3474 31.5844 20.8555 29.0924 20.8555 26.0001C20.8555 22.9077 23.3474 20.4158 26.4398 20.4158C29.5321 20.4158 32.0241 22.9077 32.0241 26.0001C32.0241 29.0924 29.5321 31.5844 26.4398 31.5844ZM26.4398 24.3188C25.509 24.3188 24.7284 25.0994 24.7284 26.0301C24.7284 26.9608 25.509 27.7414 26.4398 27.7414C27.3705 27.7414 28.1511 26.9608 28.1511 26.0301C28.1511 25.0994 27.3705 24.3188 26.4398 24.3188Z" fill="#F9F9F9"/>
<path d="M29.112 3.90301V8.79677C31.8741 9.24712 34.3961 10.2679 36.5577 11.8591L40.1905 8.22633L43.9734 12.0092L40.3707 15.612C42.052 17.8337 43.1928 20.4758 43.6432 23.358H48.537V28.7321H43.6432C43.1928 31.4942 42.1721 34.0162 40.5808 36.1778L43.9434 39.5404L40.1605 43.3233L36.8279 39.9908C34.6062 41.6721 31.9642 42.8129 29.082 43.2333V48.127H23.7079V43.2333C20.8256 42.7829 18.1536 41.642 15.9619 39.9908L12.6594 43.3233L8.87644 39.5404L12.239 36.1778C10.7079 34.0162 9.62702 31.4642 9.17667 28.7321H4.25289V23.358H9.14665C9.597 20.4758 10.7379 17.8637 12.4192 15.612L8.8164 12.0092L12.5993 8.22633L16.2321 11.8591C18.3938 10.328 20.9457 9.24712 23.6778 8.8268V3.93303H29.112M29.112 0.0300293H23.7379C21.5762 0.0300293 19.8649 1.77137 19.8649 3.90301V5.76444C18.8441 6.09469 17.8533 6.51502 16.9226 6.96536L15.4515 5.49423C14.7009 4.74366 13.7402 4.35335 12.7194 4.35335C11.6686 4.35335 10.7079 4.74366 9.9873 5.49423L6.23441 9.27714C4.73326 10.7783 4.73326 13.2402 6.23441 14.7413L7.6455 16.1524C7.07506 17.2333 6.59469 18.3441 6.23441 19.485H4.37298C2.21132 19.485 0.5 21.2263 0.5 23.358V28.7021C0.5 30.8637 2.24134 32.5751 4.37298 32.5751H6.23441C6.56466 33.5959 6.98499 34.5866 7.43533 35.5173L6.23441 36.7183C4.73326 38.2194 4.73326 40.6813 6.23441 42.1825L10.0173 45.9654C10.7679 46.7159 11.7587 47.1062 12.7494 47.1062C13.7102 47.1062 14.7309 46.746 15.4815 45.9654L16.6224 44.8245C17.7032 45.3949 18.8141 45.8753 19.955 46.2356V48.097C19.955 50.2587 21.6963 51.97 23.8279 51.97H29.1721C31.3337 51.97 33.045 50.2286 33.045 48.097V46.2356C34.1859 45.8753 35.2968 45.3949 36.3776 44.8245L37.5185 45.9654C38.2691 46.7159 39.2598 47.1062 40.2506 47.1062C41.2413 47.1062 42.2321 46.746 42.9827 45.9654L46.7656 42.1825C47.5162 41.4319 47.9065 40.4711 47.9065 39.4504C47.9065 38.3995 47.5162 37.4388 46.7656 36.7183L45.5647 35.5173C46.045 34.5566 46.4353 33.5658 46.7656 32.5751H48.627C50.7887 32.5751 52.5 30.8337 52.5 28.7021V23.358C52.5 21.1963 50.7587 19.485 48.627 19.485H46.7656C46.4053 18.3441 45.9249 17.2333 45.3545 16.1524L46.7656 14.7413C48.2667 13.2402 48.2667 10.7783 46.7656 9.27714L42.9827 5.49423C42.2321 4.74366 41.2714 4.35335 40.2506 4.35335C39.1998 4.35335 38.239 4.74366 37.5185 5.49423L36.0473 6.96536C35.0866 6.48499 34.0958 6.09469 33.1051 5.76444V3.90301C32.985 1.77137 31.2437 0.0300293 29.112 0.0300293Z" fill="#F9F9F9"/>
</svg>
