<svg width="19" height="21" viewBox="0 0 19 21" fill="none" xmlns="http://www.w3.org/2000/svg">
<g clip-path="url(#clip0_1591_4365)">
<g clip-path="url(#clip1_1591_4365)">
<path fill-rule="evenodd" clip-rule="evenodd" d="M17.7123 5.4252C17.0736 5.70728 16.3964 5.89248 15.703 5.97467C16.4337 5.53769 16.9801 4.84921 17.2396 4.03825C16.5532 4.44589 15.8022 4.73328 15.019 4.88804C14.4921 4.32603 13.7945 3.95358 13.0343 3.82846C12.2742 3.70333 11.494 3.83253 10.8147 4.196C10.1355 4.55947 9.59519 5.13692 9.27759 5.83877C8.95998 6.54062 8.88284 7.32766 9.05812 8.07783C7.66726 8.00845 6.30656 7.64718 5.06448 7.01748C3.82239 6.38779 2.7267 5.50377 1.84864 4.42288C1.53781 4.95669 1.37434 5.56348 1.37496 6.1812C1.37467 6.75697 1.51661 7.32389 1.78815 7.83161C2.05969 8.33933 2.45243 8.77211 2.93149 9.09151C2.37585 9.07393 1.83246 8.92387 1.34654 8.65383V8.69646C1.3467 9.50411 1.62621 10.2868 2.13766 10.9119C2.64911 11.537 3.36102 11.9659 4.15264 12.1259C3.63736 12.2642 3.09751 12.2842 2.57338 12.1847C2.79675 12.8796 3.23165 13.4874 3.81731 13.923C4.40296 14.3587 5.11011 14.6005 5.83991 14.6147C4.60065 15.5877 3.06994 16.1153 1.49433 16.1125C1.21201 16.1125 0.935381 16.0945 0.660645 16.0651C2.26002 17.093 4.12155 17.6386 6.02275 17.6368C12.4563 17.6368 15.9749 12.3069 15.9749 7.68467C15.9749 7.5312 15.973 7.38151 15.9654 7.23183C16.6506 6.73711 17.2416 6.12363 17.7104 5.42046L17.7123 5.4252Z" fill="#DC1D28"/>
</g>
</g>
<defs>
<clipPath id="clip0_1591_4365">
<rect width="18" height="20" fill="white" transform="translate(0.279785 0.985107)"/>
</clipPath>
<clipPath id="clip1_1591_4365">
<rect width="18" height="20" fill="white" transform="translate(0.279785 0.985107)"/>
</clipPath>
</defs>
</svg>
