<svg width="15" height="12" viewBox="0 0 15 12" fill="none" xmlns="http://www.w3.org/2000/svg">
<path d="M12.8756 2.90625C12.8756 3.04297 12.8756 3.15234 12.8756 3.28906C12.8756 7.08984 10.0045 11.4375 4.72715 11.4375C3.08652 11.4375 1.58262 10.9727 0.324805 10.1523C0.543555 10.1797 0.762305 10.207 1.0084 10.207C2.34824 10.207 3.57871 9.74219 4.56309 8.97656C3.30527 8.94922 2.23887 8.12891 1.8834 6.98047C2.0748 7.00781 2.23887 7.03516 2.43027 7.03516C2.67637 7.03516 2.9498 6.98047 3.16855 6.92578C1.85605 6.65234 0.87168 5.50391 0.87168 4.10938V4.08203C1.25449 4.30078 1.71934 4.41016 2.18418 4.4375C1.39121 3.91797 0.899024 3.04297 0.899024 2.05859C0.899024 1.51172 1.03574 1.01953 1.28184 0.609375C2.70371 2.33203 4.83652 3.48047 7.21543 3.61719C7.16074 3.39844 7.1334 3.17969 7.1334 2.96094C7.1334 1.375 8.41855 0.0898438 10.0045 0.0898438C10.8248 0.0898438 11.5631 0.417969 12.11 0.992188C12.7389 0.855469 13.3678 0.609375 13.9146 0.28125C13.6959 0.964844 13.2584 1.51172 12.6568 1.86719C13.2311 1.8125 13.8053 1.64844 14.2975 1.42969C13.9146 2.00391 13.4225 2.49609 12.8756 2.90625Z" fill="white"/>
</svg>
