<svg width="35" height="35" viewBox="0 0 35 35" fill="none" xmlns="http://www.w3.org/2000/svg">
<rect x="0.5" y="0.5" width="34" height="34" rx="17" stroke="#A0A5B1"/>
<path d="M17.5996 13.8863C19.675 13.8863 21.3881 15.5993 21.3881 17.6748C21.3881 19.7832 19.675 21.4633 17.5996 21.4633C15.4912 21.4633 13.811 19.7832 13.811 17.6748C13.811 15.5993 15.4912 13.8863 17.5996 13.8863ZM17.5996 20.1456C18.9503 20.1456 20.0374 19.0584 20.0374 17.6748C20.0374 16.3241 18.9503 15.237 17.5996 15.237C16.2159 15.237 15.1288 16.3241 15.1288 17.6748C15.1288 19.0584 16.2489 20.1456 17.5996 20.1456ZM22.4094 13.7545C22.4094 14.2487 22.014 14.644 21.5199 14.644C21.0257 14.644 20.6304 14.2487 20.6304 13.7545C20.6304 13.2603 21.0257 12.865 21.5199 12.865C22.014 12.865 22.4094 13.2603 22.4094 13.7545ZM24.9131 14.644C24.979 15.8629 24.979 19.5197 24.9131 20.7386C24.8472 21.9245 24.5836 22.9458 23.7271 23.8353C22.8706 24.6918 21.8164 24.9554 20.6304 25.0213C19.4115 25.0871 15.7547 25.0871 14.5358 25.0213C13.3498 24.9554 12.3286 24.6918 11.4391 23.8353C10.5826 22.9458 10.319 21.9245 10.2531 20.7386C10.1872 19.5197 10.1872 15.8629 10.2531 14.644C10.319 13.458 10.5826 12.4038 11.4391 11.5473C12.3286 10.6907 13.3498 10.4272 14.5358 10.3613C15.7547 10.2954 19.4115 10.2954 20.6304 10.3613C21.8164 10.4272 22.8706 10.6907 23.7271 11.5473C24.5836 12.4038 24.8472 13.458 24.9131 14.644ZM23.3318 22.0234C23.7271 21.068 23.6283 18.7619 23.6283 17.6748C23.6283 16.6206 23.7271 14.3145 23.3318 13.3262C23.0682 12.7003 22.5741 12.1732 21.9481 11.9426C20.9598 11.5473 18.6538 11.6461 17.5996 11.6461C16.5124 11.6461 14.2064 11.5473 13.251 11.9426C12.5921 12.2061 12.098 12.7003 11.8344 13.3262C11.4391 14.3145 11.5379 16.6206 11.5379 17.6748C11.5379 18.7619 11.4391 21.068 11.8344 22.0234C12.098 22.6823 12.5921 23.1764 13.251 23.44C14.2064 23.8353 16.5124 23.7365 17.5996 23.7365C18.6538 23.7365 20.9598 23.8353 21.9481 23.44C22.5741 23.1764 23.1012 22.6823 23.3318 22.0234Z" fill="#F9F9F9"/>
</svg>
