<svg width="35" height="35" viewBox="0 0 35 35" fill="none" xmlns="http://www.w3.org/2000/svg">
<rect x="0.5" y="0.5" width="34" height="34" rx="17" stroke="#A0A5B1"/>
<path d="M23.9746 10.1875C24.539 10.1875 25.0371 10.6855 25.0371 11.2832V24C25.0371 24.5977 24.539 25.0625 23.9746 25.0625H11.1914C10.6269 25.0625 10.1621 24.5977 10.1621 24V11.2832C10.1621 10.6855 10.6269 10.1875 11.1914 10.1875H23.9746ZM14.6445 22.9375V15.8652H12.4531V22.9375H14.6445ZM13.5488 14.8691C14.2461 14.8691 14.8105 14.3047 14.8105 13.6074C14.8105 12.9102 14.2461 12.3125 13.5488 12.3125C12.8183 12.3125 12.2539 12.9102 12.2539 13.6074C12.2539 14.3047 12.8183 14.8691 13.5488 14.8691ZM22.9121 22.9375V19.0527C22.9121 17.1602 22.4804 15.666 20.2558 15.666C19.1933 15.666 18.4629 16.2637 18.164 16.8281H18.1308V15.8652H16.039V22.9375H18.2304V19.4512C18.2304 18.5215 18.3964 17.625 19.5586 17.625C20.6875 17.625 20.6875 18.6875 20.6875 19.4844V22.9375H22.9121Z" fill="#F9F9F9"/>
</svg>
