<svg width="35" height="35" viewBox="0 0 35 35" fill="none" xmlns="http://www.w3.org/2000/svg">
<rect x="0.5" y="0.5" width="34" height="34" rx="17" stroke="#A0A5B1"/>
<path d="M24.2402 19.0859C24.7382 19.7168 25.0371 20.5137 25.0039 21.3438C25.0039 23.4023 23.3437 25.0625 21.2851 25.0625C20.455 25.0625 19.6582 24.7969 19.0273 24.2988C18.5625 24.3984 18.0644 24.4648 17.5664 24.4648C13.8144 24.4648 10.7597 21.4102 10.7597 17.625C10.7597 17.1602 10.8261 16.6621 10.9257 16.1973C10.4277 15.5664 10.1621 14.7695 10.1621 13.9062C10.1621 11.8809 11.8222 10.1875 13.8808 10.1875C14.7109 10.1875 15.5078 10.4863 16.1386 10.9844C16.6035 10.8848 17.1015 10.8184 17.5996 10.8184C21.3515 10.8184 24.4062 13.873 24.4062 17.625C24.4062 18.123 24.3398 18.6211 24.2402 19.0859ZM17.7988 22.1406C19.625 22.1406 21.5175 21.2109 21.5175 19.252C21.5175 17.5586 19.8574 16.9941 18.4961 16.6953C16.9023 16.2969 16.205 16.2305 16.205 15.5996C16.205 15.0684 16.7363 14.8359 17.5996 14.8359C19.1269 14.8359 19.1601 15.9648 20.0898 15.9648C20.7207 15.9648 21.0859 15.4668 21.0859 14.9023C21.0859 13.7734 19.2265 13.043 17.4004 13.043C15.7402 13.043 13.7812 13.7734 13.7812 15.7656C13.7812 17.9238 15.6406 18.123 17.6992 18.6543C18.5625 18.8535 19.0937 18.9531 19.0937 19.584C19.0937 20.082 18.5293 20.4473 17.6992 20.4473C15.9062 20.4473 15.8066 18.9531 14.7773 18.9531C14.08 18.9531 13.7812 19.4512 13.7812 19.9824C13.7812 21.1777 15.6074 22.1406 17.7988 22.1406Z" fill="#F9F9F9"/>
</svg>
