<svg width="35" height="35" viewBox="0 0 35 35" fill="none" xmlns="http://www.w3.org/2000/svg">
<rect x="0.5" y="0.5" width="34" height="34" rx="17" stroke="#A0A5B1"/>
<path d="M24.3402 14.1719C24.3402 14.3379 24.3402 14.4707 24.3402 14.6367C24.3402 19.252 20.8539 24.5312 14.4457 24.5312C12.4535 24.5312 10.6273 23.9668 9.1 22.9707C9.36563 23.0039 9.63125 23.0371 9.93008 23.0371C11.557 23.0371 13.0512 22.4727 14.2465 21.543C12.7191 21.5098 11.4242 20.5137 10.9926 19.1191C11.225 19.1523 11.4242 19.1855 11.6566 19.1855C11.9555 19.1855 12.2875 19.1191 12.5531 19.0527C10.9594 18.7207 9.76406 17.3262 9.76406 15.6328V15.5996C10.2289 15.8652 10.7934 15.998 11.3578 16.0312C10.3949 15.4004 9.79727 14.3379 9.79727 13.1426C9.79727 12.4785 9.96328 11.8809 10.2621 11.3828C11.9887 13.4746 14.5785 14.8691 17.4672 15.0352C17.4008 14.7695 17.3676 14.5039 17.3676 14.2383C17.3676 12.3125 18.9281 10.752 20.8539 10.752C21.85 10.752 22.7465 11.1504 23.4105 11.8477C24.1742 11.6816 24.9379 11.3828 25.602 10.9844C25.3363 11.8145 24.8051 12.4785 24.0746 12.9102C24.7719 12.8438 25.4691 12.6445 26.0668 12.3789C25.602 13.0762 25.0043 13.6738 24.3402 14.1719Z" fill="#F9F9F9"/>
</svg>
